<?xml version="1.0" encoding="utf-8"?>
<svg version="1.1" id="Layer_1" xmlns="http://www.w3.org/2000/svg" xmlns:xlink="http://www.w3.org/1999/xlink" x="0px" y="0px"
	 viewBox="-123 48.2 943.1 744.7" style="enable-background:new -123 48.2 943.1 744.7;" xml:space="preserve">
<style type="text/css">
	.st0{fill:none;stroke:#0000FF;stroke-width:0.9;}
	.st1{fill:none;stroke:#FF0000;stroke-width:0.9;stroke-miterlimit:10;}
	.st2{fill:none;stroke:#0000FF;stroke-width:0.9;stroke-miterlimit:10;}
	.st3{fill:none;stroke:#000000;stroke-width:0.9;stroke-miterlimit:10;}
</style>
<g transform="translate(22.5000185, 22.5000185) ">
	<polygon class="st0" points="-127.5,43.7 -102.7,43.7 -102.7,52.2 -77.9,52.2 -77.9,43.7 -60.9,43.7 -60.9,52.2 -43.9,52.2 
		-43.9,43.7 -26.9,43.7 -26.9,52.2 -9.9,52.2 -9.9,43.7 7.1,43.7 7.1,52.2 24.2,52.2 24.2,43.7 41.2,43.7 41.2,52.2 58.2,52.2 
		58.2,43.7 75.2,43.7 75.2,52.2 92.2,52.2 92.2,43.7 109.2,43.7 109.2,52.2 126.2,52.2 126.2,43.7 143.2,43.7 143.2,52.2 
		160.2,52.2 160.2,43.7 177.2,43.7 177.2,52.2 202,52.2 202,43.7 226.8,43.7 226.8,68.5 218.3,68.5 218.3,93.3 226.8,93.3 
		226.8,110.3 218.3,110.3 218.3,127.4 226.8,127.4 226.8,144.4 218.3,144.4 218.3,161.4 226.8,161.4 226.8,178.4 218.3,178.4 
		218.3,195.4 226.8,195.4 226.8,212.4 218.3,212.4 218.3,229.4 226.8,229.4 226.8,246.4 218.3,246.4 218.3,263.4 226.8,263.4 
		226.8,280.4 218.3,280.4 218.3,297.4 226.8,297.4 226.8,314.4 218.3,314.4 218.3,331.4 226.8,331.4 226.8,348.5 218.3,348.5 
		218.3,373.3 226.8,373.3 226.8,398.1 202,398.1 202,389.6 177.2,389.6 177.2,398.1 160.2,398.1 160.2,389.6 143.2,389.6 
		143.2,398.1 126.2,398.1 126.2,389.6 109.2,389.6 109.2,398.1 92.2,398.1 92.2,389.6 75.2,389.6 75.2,398.1 58.2,398.1 58.2,389.6 
		41.2,389.6 41.2,398.1 24.2,398.1 24.2,389.6 7.1,389.6 7.1,398.1 -9.9,398.1 -9.9,389.6 -26.9,389.6 -26.9,398.1 -43.9,398.1 
		-43.9,389.6 -60.9,389.6 -60.9,398.1 -77.9,398.1 -77.9,389.6 -102.7,389.6 -102.7,398.1 -127.5,398.1 -127.5,373.3 -119,373.3 
		-119,348.5 -127.5,348.5 -127.5,331.4 -119,331.4 -119,314.4 -127.5,314.4 -127.5,297.4 -119,297.4 -119,280.4 -127.5,280.4 
		-127.5,263.4 -119,263.4 -119,246.4 -127.5,246.4 -127.5,229.4 -119,229.4 -119,212.4 -127.5,212.4 -127.5,195.4 -119,195.4 
		-119,178.4 -127.5,178.4 -127.5,161.4 -119,161.4 -119,144.4 -127.5,144.4 -127.5,127.4 -119,127.4 -119,110.3 -127.5,110.3 
		-127.5,93.3 -119,93.3 -119,68.5 -127.5,68.5 	"/>
</g>
<g transform="translate(465.41376849999995, 22.5000185) ">
	<polygon class="st0" points="-216.1,43.7 -191.3,43.7 -191.3,52.2 -166.5,52.2 -166.5,43.7 -149.5,43.7 -149.5,52.2 -132.5,52.2 
		-132.5,43.7 -115.5,43.7 -115.5,52.2 -98.4,52.2 -98.4,43.7 -81.4,43.7 -81.4,52.2 -64.4,52.2 -64.4,43.7 -47.4,43.7 -47.4,52.2 
		-30.4,52.2 -30.4,43.7 -13.4,43.7 -13.4,52.2 3.6,52.2 3.6,43.7 20.6,43.7 20.6,52.2 37.6,52.2 37.6,43.7 54.6,43.7 54.6,52.2 
		71.6,52.2 71.6,43.7 88.6,43.7 88.6,52.2 113.4,52.2 113.4,43.7 138.2,43.7 138.2,68.5 129.7,68.5 129.7,93.3 138.2,93.3 
		138.2,110.3 129.7,110.3 129.7,127.4 138.2,127.4 138.2,144.4 129.7,144.4 129.7,161.4 138.2,161.4 138.2,178.4 129.7,178.4 
		129.7,195.4 138.2,195.4 138.2,212.4 129.7,212.4 129.7,229.4 138.2,229.4 138.2,246.4 129.7,246.4 129.7,263.4 138.2,263.4 
		138.2,280.4 129.7,280.4 129.7,297.4 138.2,297.4 138.2,314.4 129.7,314.4 129.7,331.4 138.2,331.4 138.2,348.5 129.7,348.5 
		129.7,373.3 138.2,373.3 138.2,398.1 113.4,398.1 113.4,389.6 88.6,389.6 88.6,398.1 71.6,398.1 71.6,389.6 54.6,389.6 54.6,398.1 
		37.6,398.1 37.6,389.6 20.6,389.6 20.6,398.1 3.6,398.1 3.6,389.6 -13.4,389.6 -13.4,398.1 -30.4,398.1 -30.4,389.6 -47.4,389.6 
		-47.4,398.1 -64.4,398.1 -64.4,389.6 -81.4,389.6 -81.4,398.1 -98.4,398.1 -98.4,389.6 -115.5,389.6 -115.5,398.1 -132.5,398.1 
		-132.5,389.6 -149.5,389.6 -149.5,398.1 -166.5,398.1 -166.5,389.6 -191.3,389.6 -191.3,398.1 -216.1,398.1 -216.1,373.3 
		-207.6,373.3 -207.6,348.5 -216.1,348.5 -216.1,331.4 -207.6,331.4 -207.6,314.4 -216.1,314.4 -216.1,297.4 -207.6,297.4 
		-207.6,280.4 -216.1,280.4 -216.1,263.4 -207.6,263.4 -207.6,246.4 -216.1,246.4 -216.1,229.4 -207.6,229.4 -207.6,212.4 
		-216.1,212.4 -216.1,195.4 -207.6,195.4 -207.6,178.4 -216.1,178.4 -216.1,161.4 -207.6,161.4 -207.6,144.4 -216.1,144.4 
		-216.1,127.4 -207.6,127.4 -207.6,110.3 -216.1,110.3 -216.1,93.3 -207.6,93.3 -207.6,68.5 -216.1,68.5 	"/>
</g>
<g transform="translate(908.3275185000001, 22.5000185) ">
	<polygon class="st0" points="-296.2,43.7 -276.3,43.7 -276.3,52.2 -248,52.2 -248,43.7 -231,43.7 -231,52.2 -214,52.2 -214,43.7 
		-196.9,43.7 -196.9,52.2 -179.9,52.2 -179.9,43.7 -162.9,43.7 -162.9,52.2 -134.6,52.2 -134.6,43.7 -114.7,43.7 -114.7,68.5 
		-106.2,68.5 -106.2,93.3 -114.7,93.3 -114.7,110.3 -106.2,110.3 -106.2,127.4 -114.7,127.4 -114.7,144.4 -106.2,144.4 
		-106.2,161.4 -114.7,161.4 -114.7,178.4 -106.2,178.4 -106.2,195.4 -114.7,195.4 -114.7,212.4 -106.2,212.4 -106.2,229.4 
		-114.7,229.4 -114.7,246.4 -106.2,246.4 -106.2,263.4 -114.7,263.4 -114.7,280.4 -106.2,280.4 -106.2,297.4 -114.7,297.4 
		-114.7,314.4 -106.2,314.4 -106.2,331.4 -114.7,331.4 -114.7,348.5 -106.2,348.5 -106.2,373.3 -114.7,373.3 -114.7,398.1 
		-134.6,398.1 -134.6,389.6 -162.9,389.6 -162.9,398.1 -179.9,398.1 -179.9,389.6 -196.9,389.6 -196.9,398.1 -214,398.1 -214,389.6 
		-231,389.6 -231,398.1 -248,398.1 -248,389.6 -276.3,389.6 -276.3,398.1 -296.2,398.1 -296.2,373.3 -304.7,373.3 -304.7,348.5 
		-296.2,348.5 -296.2,331.4 -304.7,331.4 -304.7,314.4 -296.2,314.4 -296.2,297.4 -304.7,297.4 -304.7,280.4 -296.2,280.4 
		-296.2,263.4 -304.7,263.4 -304.7,246.4 -296.2,246.4 -296.2,229.4 -304.7,229.4 -304.7,212.4 -296.2,212.4 -296.2,195.4 
		-304.7,195.4 -304.7,178.4 -296.2,178.4 -296.2,161.4 -304.7,161.4 -304.7,144.4 -296.2,144.4 -296.2,127.4 -304.7,127.4 
		-304.7,110.3 -296.2,110.3 -296.2,93.3 -304.7,93.3 -304.7,68.5 -296.2,68.5 	"/>
</g>
<g transform="translate(908.3275185000001, 465.41376849999995) ">
	<polygon class="st0" points="-296.2,-44.9 -276.3,-44.9 -276.3,-36.4 -248,-36.4 -248,-44.9 -231,-44.9 -231,-36.4 -214,-36.4 
		-214,-44.9 -196.9,-44.9 -196.9,-36.4 -179.9,-36.4 -179.9,-44.9 -162.9,-44.9 -162.9,-36.4 -134.6,-36.4 -134.6,-44.9 
		-114.7,-44.9 -114.7,-20.1 -106.2,-20.1 -106.2,4.8 -114.7,4.8 -114.7,21.8 -106.2,21.8 -106.2,38.8 -114.7,38.8 -114.7,55.8 
		-106.2,55.8 -106.2,72.8 -114.7,72.8 -114.7,89.8 -106.2,89.8 -106.2,106.8 -114.7,106.8 -114.7,123.8 -106.2,123.8 -106.2,140.8 
		-114.7,140.8 -114.7,157.8 -106.2,157.8 -106.2,174.8 -114.7,174.8 -114.7,191.8 -106.2,191.8 -106.2,208.8 -114.7,208.8 
		-114.7,225.9 -106.2,225.9 -106.2,242.9 -114.7,242.9 -114.7,259.9 -106.2,259.9 -106.2,284.7 -114.7,284.7 -114.7,309.5 
		-134.6,309.5 -134.6,301 -162.9,301 -162.9,309.5 -179.9,309.5 -179.9,301 -196.9,301 -196.9,309.5 -214,309.5 -214,301 -231,301 
		-231,309.5 -248,309.5 -248,301 -276.3,301 -276.3,309.5 -296.2,309.5 -296.2,284.7 -304.7,284.7 -304.7,259.9 -296.2,259.9 
		-296.2,242.9 -304.7,242.9 -304.7,225.9 -296.2,225.9 -296.2,208.8 -304.7,208.8 -304.7,191.8 -296.2,191.8 -296.2,174.8 
		-304.7,174.8 -304.7,157.8 -296.2,157.8 -296.2,140.8 -304.7,140.8 -304.7,123.8 -296.2,123.8 -296.2,106.8 -304.7,106.8 
		-304.7,89.8 -296.2,89.8 -296.2,72.8 -304.7,72.8 -304.7,55.8 -296.2,55.8 -296.2,38.8 -304.7,38.8 -304.7,21.8 -296.2,21.8 
		-296.2,4.8 -304.7,4.8 -304.7,-20.1 -296.2,-20.1 	"/>
</g>
<g transform="translate(22.5000185, 465.41376849999995) ">
	<polygon class="st0" points="-119,-36.4 -102.7,-36.4 -102.7,-44.9 -77.9,-44.9 -77.9,-36.4 -60.9,-36.4 -60.9,-44.9 -43.9,-44.9 
		-43.9,-36.4 -26.9,-36.4 -26.9,-44.9 -9.9,-44.9 -9.9,-36.4 7.1,-36.4 7.1,-44.9 24.2,-44.9 24.2,-36.4 41.2,-36.4 41.2,-44.9 
		58.2,-44.9 58.2,-36.4 75.2,-36.4 75.2,-44.9 92.2,-44.9 92.2,-36.4 109.2,-36.4 109.2,-44.9 126.2,-44.9 126.2,-36.4 143.2,-36.4 
		143.2,-44.9 160.2,-44.9 160.2,-36.4 177.2,-36.4 177.2,-44.9 202,-44.9 202,-36.4 218.3,-36.4 218.3,-16.5 226.8,-16.5 
		226.8,11.8 218.3,11.8 218.3,28.8 226.8,28.8 226.8,45.9 218.3,45.9 218.3,62.9 226.8,62.9 226.8,79.9 218.3,79.9 218.3,96.9 
		226.8,96.9 226.8,125.2 218.3,125.2 218.3,145.1 202,145.1 202,153.6 177.2,153.6 177.2,145.1 160.2,145.1 160.2,153.6 
		143.2,153.6 143.2,145.1 126.2,145.1 126.2,153.6 109.2,153.6 109.2,145.1 92.2,145.1 92.2,153.6 75.2,153.6 75.2,145.1 
		58.2,145.1 58.2,153.6 41.2,153.6 41.2,145.1 24.2,145.1 24.2,153.6 7.1,153.6 7.1,145.1 -9.9,145.1 -9.9,153.6 -26.9,153.6 
		-26.9,145.1 -43.9,145.1 -43.9,153.6 -60.9,153.6 -60.9,145.1 -77.9,145.1 -77.9,153.6 -102.7,153.6 -102.7,145.1 -119,145.1 
		-119,125.2 -127.5,125.2 -127.5,96.9 -119,96.9 -119,79.9 -127.5,79.9 -127.5,62.9 -119,62.9 -119,45.9 -127.5,45.9 -127.5,28.8 
		-119,28.8 -119,11.8 -127.5,11.8 -127.5,-16.5 -119,-16.5 	"/>
</g>
<g transform="translate(465.41376849999995, 465.41376849999995) ">
	<polygon class="st0" points="-207.6,-36.4 -191.3,-36.4 -191.3,-44.9 -166.5,-44.9 -166.5,-36.4 -149.5,-36.4 -149.5,-44.9 
		-132.5,-44.9 -132.5,-36.4 -115.5,-36.4 -115.5,-44.9 -98.4,-44.9 -98.4,-36.4 -81.4,-36.4 -81.4,-44.9 -64.4,-44.9 -64.4,-36.4 
		-47.4,-36.4 -47.4,-44.9 -30.4,-44.9 -30.4,-36.4 -13.4,-36.4 -13.4,-44.9 3.6,-44.9 3.6,-36.4 20.6,-36.4 20.6,-44.9 37.6,-44.9 
		37.6,-36.4 54.6,-36.4 54.6,-44.9 71.6,-44.9 71.6,-36.4 88.6,-36.4 88.6,-44.9 113.4,-44.9 113.4,-36.4 129.7,-36.4 129.7,-16.5 
		138.2,-16.5 138.2,11.8 129.7,11.8 129.7,28.8 138.2,28.8 138.2,45.9 129.7,45.9 129.7,62.9 138.2,62.9 138.2,79.9 129.7,79.9 
		129.7,96.9 138.2,96.9 138.2,125.2 129.7,125.2 129.7,145.1 113.4,145.1 113.4,153.6 88.6,153.6 88.6,145.1 71.6,145.1 71.6,153.6 
		54.6,153.6 54.6,145.1 37.6,145.1 37.6,153.6 20.6,153.6 20.6,145.1 3.6,145.1 3.6,153.6 -13.4,153.6 -13.4,145.1 -30.4,145.1 
		-30.4,153.6 -47.4,153.6 -47.4,145.1 -64.4,145.1 -64.4,153.6 -81.4,153.6 -81.4,145.1 -98.4,145.1 -98.4,153.6 -115.5,153.6 
		-115.5,145.1 -132.5,145.1 -132.5,153.6 -149.5,153.6 -149.5,145.1 -166.5,145.1 -166.5,153.6 -191.3,153.6 -191.3,145.1 
		-207.6,145.1 -207.6,125.2 -216.1,125.2 -216.1,96.9 -207.6,96.9 -207.6,79.9 -216.1,79.9 -216.1,62.9 -207.6,62.9 -207.6,45.9 
		-216.1,45.9 -216.1,28.8 -207.6,28.8 -207.6,11.8 -216.1,11.8 -216.1,-16.5 -207.6,-16.5 	"/>
</g>
<g>
	<path id="path11_6_" inkscape:connector-curvature="0" class="st1" d="M154.2,454.2c-2.1,0-3.8-1.8-3.8-3.9c0-2.1,1.7-3.8,3.8-3.8
		c2.1,0,3.9,1.7,3.9,3.8C158.1,452.4,156.3,454.2,154.2,454.2z"/>
	<path id="path11_5_" inkscape:connector-curvature="0" class="st1" d="M154.4,593.1c-2.1,0-3.8-1.8-3.8-3.9s1.7-3.8,3.8-3.8
		c2.1,0,3.9,1.7,3.9,3.8S156.5,593.1,154.4,593.1z"/>
	<path id="path11_3_" inkscape:connector-curvature="0" class="st1" d="M-10.1,454.2c-2.1,0-3.8-1.8-3.8-3.9c0-2.1,1.7-3.8,3.8-3.8
		c2.1,0,3.9,1.7,3.9,3.8C-6.2,452.4-8,454.2-10.1,454.2z"/>
	<path id="path11_1_" inkscape:connector-curvature="0" class="st1" d="M-10.1,593.1c-2.1,0-3.8-1.8-3.8-3.9s1.7-3.8,3.8-3.8
		s3.9,1.7,3.9,3.8S-8,593.1-10.1,593.1z"/>
</g>
<rect x="347.9" y="362.1" class="st1" width="34" height="34"/>
<path class="st2" d="M-61.7,729.3c-15.7,0-28.3-12.7-28.3-28.3c0-15.7,12.7-28.3,28.3-28.3s138.3,12.7,138.3,28.3
	C76.7,716.6-46,729.3-61.7,729.3z"/>
<rect x="623.4" y="362.1" class="st1" width="158.9" height="34"/>
<circle class="st1" cx="72.2" cy="243.4" r="14.2"/>
<path class="st3" d="M6.9,274.4c-3.6-8.5-5.6-17.8-5.6-27.6c0-9.8,2-19.1,5.6-27.6c3.6-8.5,8.8-16.1,15.2-22.5s14-11.6,22.5-15.2
	c8.5-3.6,17.8-5.6,27.6-5.6s19.1,2,27.6,5.6c8.5,3.6,16.1,8.8,22.5,15.2c6.4,6.4,11.6,14,15.2,22.5c3.6,8.5,5.6,17.8,5.6,27.6
	c0,9.8-2,19.1-5.6,27.6"/>
<g>
	<path d="M-85.7,650.4c0.5,0.1,0.9,0.3,1.2,0.7c0.3,0.4,0.4,0.9,0.4,1.4c0,0.4-0.1,0.7-0.2,1c-0.1,0.3-0.3,0.6-0.6,0.8
		c-0.3,0.2-0.6,0.4-0.9,0.5s-0.7,0.2-1.2,0.2c-0.6,0-1.1-0.1-1.6-0.3c-0.5-0.2-0.8-0.5-1.1-1l0.7-0.7c0.2,0.3,0.4,0.6,0.7,0.8
		c0.3,0.2,0.7,0.3,1.2,0.3c0.6,0,1-0.1,1.3-0.4s0.5-0.6,0.5-1.1s-0.2-0.9-0.5-1.2c-0.3-0.3-0.8-0.4-1.5-0.4h-0.3V650h0.3
		c0.6,0,1-0.1,1.3-0.4c0.3-0.3,0.5-0.6,0.5-1s-0.1-0.7-0.4-0.9s-0.7-0.3-1.1-0.3c-0.4,0-0.8,0.1-1.2,0.3c-0.3,0.2-0.6,0.4-0.8,0.8
		l-0.6-0.7c0.1-0.2,0.2-0.4,0.4-0.5s0.4-0.3,0.6-0.4c0.2-0.1,0.5-0.2,0.8-0.3c0.3-0.1,0.6-0.1,0.9-0.1c0.4,0,0.7,0.1,1,0.2
		c0.3,0.1,0.6,0.2,0.8,0.4c0.2,0.2,0.4,0.4,0.5,0.7c0.1,0.3,0.2,0.6,0.2,0.9c0,0.2,0,0.5-0.1,0.7c-0.1,0.2-0.2,0.4-0.3,0.6
		c-0.1,0.2-0.3,0.3-0.5,0.4C-85.3,650.3-85.5,650.4-85.7,650.4z"/>
	<path d="M-73.2,653.3h-1.1v-3.5c0-0.7-0.1-1.1-0.3-1.5c-0.2-0.3-0.5-0.5-0.9-0.5c-0.4,0-0.8,0.2-1.2,0.5c-0.3,0.3-0.6,0.7-0.7,1.2
		v3.8h-1.1v-3.5c0-0.7-0.1-1.2-0.3-1.5s-0.5-0.5-0.9-0.5c-0.4,0-0.8,0.1-1.2,0.5c-0.3,0.3-0.6,0.7-0.7,1.2v3.8h-1.1V647h1v1.3
		c0.3-0.5,0.6-0.8,1-1.1c0.4-0.3,0.9-0.4,1.4-0.4c0.5,0,0.9,0.1,1.3,0.4c0.3,0.3,0.5,0.7,0.6,1.1c0.6-1,1.4-1.5,2.4-1.5
		c0.4,0,0.7,0.1,0.9,0.2c0.2,0.1,0.4,0.3,0.6,0.6c0.1,0.2,0.2,0.5,0.3,0.8c0.1,0.3,0.1,0.7,0.1,1V653.3z"/>
	<path d="M-62.1,653.3h-1.1v-3.5c0-0.7-0.1-1.1-0.3-1.5c-0.2-0.3-0.5-0.5-0.9-0.5c-0.4,0-0.8,0.2-1.2,0.5c-0.3,0.3-0.6,0.7-0.7,1.2
		v3.8h-1.1v-3.5c0-0.7-0.1-1.2-0.3-1.5s-0.5-0.5-0.9-0.5c-0.4,0-0.8,0.1-1.2,0.5c-0.3,0.3-0.6,0.7-0.7,1.2v3.8h-1.1V647h1v1.3
		c0.3-0.5,0.6-0.8,1-1.1c0.4-0.3,0.9-0.4,1.4-0.4c0.5,0,0.9,0.1,1.3,0.4c0.3,0.3,0.5,0.7,0.6,1.1c0.6-1,1.4-1.5,2.4-1.5
		c0.4,0,0.7,0.1,0.9,0.2c0.2,0.1,0.4,0.3,0.6,0.6c0.1,0.2,0.2,0.5,0.3,0.8c0.1,0.3,0.1,0.7,0.1,1V653.3z"/>
	<path d="M-54.1,653.4c-0.5,0-1-0.1-1.4-0.4s-0.7-0.6-0.9-1v3.8h-1.1V647h0.9v1.2c0.2-0.4,0.6-0.7,1-0.9c0.4-0.2,0.8-0.4,1.3-0.4
		c0.4,0,0.8,0.1,1.2,0.3c0.4,0.2,0.7,0.4,0.9,0.7c0.3,0.3,0.5,0.6,0.6,1c0.1,0.4,0.2,0.8,0.2,1.2c0,0.4-0.1,0.9-0.2,1.3
		c-0.1,0.4-0.3,0.7-0.6,1s-0.5,0.5-0.9,0.7C-53.3,653.3-53.7,653.4-54.1,653.4z M-54.4,652.5c0.3,0,0.6-0.1,0.8-0.2s0.5-0.3,0.6-0.5
		c0.2-0.2,0.3-0.5,0.4-0.8c0.1-0.3,0.1-0.6,0.1-0.9c0-0.3-0.1-0.6-0.2-0.9c-0.1-0.3-0.3-0.5-0.5-0.7s-0.4-0.4-0.7-0.5
		c-0.3-0.1-0.5-0.2-0.8-0.2c-0.2,0-0.4,0-0.6,0.1s-0.4,0.2-0.6,0.3c-0.2,0.1-0.3,0.3-0.5,0.4c-0.1,0.2-0.2,0.4-0.3,0.5v1.8
		c0.1,0.2,0.2,0.4,0.3,0.6c0.1,0.2,0.3,0.3,0.5,0.5s0.4,0.2,0.6,0.3C-54.8,652.4-54.6,652.5-54.4,652.5z"/>
	<path d="M-50,644.5h1.1v7.1c0,0.2,0.1,0.4,0.2,0.5c0.1,0.1,0.3,0.2,0.5,0.2c0.1,0,0.2,0,0.3,0c0.1,0,0.2-0.1,0.3-0.1l0.2,0.9
		c-0.2,0.1-0.4,0.1-0.6,0.2c-0.2,0-0.5,0.1-0.6,0.1c-0.4,0-0.7-0.1-1-0.3c-0.2-0.2-0.4-0.6-0.4-1V644.5z"/>
	<path d="M-46.5,655c0.1,0,0.2,0,0.3,0c0.1,0,0.2,0,0.2,0c0.1,0,0.2,0,0.3-0.1c0.1,0,0.2-0.1,0.2-0.3c0.1-0.1,0.2-0.3,0.3-0.5
		c0.1-0.2,0.2-0.5,0.4-0.9l-2.7-6.3h1.1l2.1,5.3l1.9-5.3h1l-3,7.9c-0.1,0.3-0.3,0.5-0.6,0.7c-0.3,0.2-0.6,0.3-1.1,0.3
		c-0.1,0-0.1,0-0.2,0c-0.1,0-0.2,0-0.3,0V655z"/>
</g>
</svg>
